<svg t="1623936625478" class="icon" viewBox="0 0 1024 1024" version="1.1" xmlns="http://www.w3.org/2000/svg" p-id="6840" width="60" height="60"><path d="M343.25 118.25H230.75c-61.875 0-112.5 50.625-112.5 112.5v112.5c0 61.875 50.625 112.5 112.5 112.5h112.5c61.875 0 112.5-50.625 112.5-112.5V230.75c0-61.875-50.625-112.5-112.5-112.5z m393.75 0H624.5c-61.875 0-112.5 50.625-112.5 112.5v112.5c0 61.875 50.625 112.5 112.5 112.5h112.5c61.875 0 112.5-50.625 112.5-112.5V230.75c0-61.875-50.625-112.5-112.5-112.5zM343.25 512H230.75c-61.875 0-112.5 50.625-112.5 112.5v112.5c0 61.875 50.625 112.5 112.5 112.5h112.5c61.875 0 112.5-50.625 112.5-112.5V624.5c0-61.875-50.625-112.5-112.5-112.5z m393.75 0H624.5c-61.875 0-112.5 50.625-112.5 112.5v112.5c0 61.875 50.625 112.5 112.5 112.5h112.5c61.875 0 112.5-50.625 112.5-112.5V624.5c0-61.875-50.625-112.5-112.5-112.5z"></path></svg>