<svg t="1623936394519" class="icon" viewBox="0 0 1024 1024" version="1.1" xmlns="http://www.w3.org/2000/svg" p-id="4483" width="60" height="60"><path d="M694.1 389.2c53-63.2 39.7-48.1 39.7-48.1V141.4c0-26.2-12.1-40.1-37.7-40.1H172.4c-24 0-39.4 12.3-39.4 38.4v706.8c0 26.2 15.4 38.4 39.4 38.4h167.8l77.1-185 276.8-310.7zM236.3 178.1h394.4c15.6 0 28.2 12.8 28.2 28.7 0 15.8-12.6 28.7-28.2 28.7H236.3c-15.6 0-28.2-12.8-28.2-28.7 0-15.9 12.6-28.7 28.2-28.7z m0 133.8h394.4c15.6 0 28.2 12.8 28.2 28.7 0 15.8-12.6 28.7-28.2 28.7H236.3c-15.6 0-28.2-12.8-28.2-28.7 0-15.9 12.6-28.7 28.2-28.7z m0 191.2c-15.6 0-28.2-12.8-28.2-28.7 0-15.8 12.6-28.7 28.2-28.7h244.1c15.6 0 28.2 12.8 28.2 28.7 0 15.8-12.6 28.7-28.2 28.7H236.3z m663.2-143.3l-50.4-43.7c-9.9-8.7-21.2-12.7-29.7-2.5l-282 311.2-65.3 78.6 84.4 77.3 30.5-37.3c13.9-16.5 26.5-31.3 32.6-38.6l1.9-2.2c1.4-1.7 2.3-2.7 2.3-2.7l277-311.2c8.5-10 8.6-20.2-1.3-28.9zM510.1 885h92l34.5 1.2 59.5-1.3c25.7 0 37.7-18.7 37.7-44.9V629L561.6 832s-44.7 49.2-51.5 53z m-70-146.4S382 847.3 370.9 888.1c-5.9 22.1-0.6 22.8 18.7 16.1 44.5-15.4 133.8-90.1 133.8-90.1l-83.3-75.5z"></path></svg>