<svg t="1626246905361" class="icon" viewBox="0 0 1327 1024" version="1.1" xmlns="http://www.w3.org/2000/svg" p-id="23017" width="60" height="60"><path d="M405.487 517.5c-91.101-42.424-151.962-136.048-151.962-246.279C253.525 121.429 370.675 0 515.189 0s261.664 121.43 261.664 271.221c0 109.915-60.687 203.387-151.37 245.989 224.303 50.609 394.164 252.375 405.283 497.19L0 1015.101C14.246 773.483 183.199 569.054 405.487 517.5zM738.845 31.175l-2.584 1.488C771.509 11.901 812.541 0 856.333 0c131.442 0 237.994 107.199 237.994 239.434 0 97.031-55.199 179.55-137.674 217.159 204.011 44.679 358.503 222.798 368.617 438.92l-238.516 0.164c-41.13-181.857-167.297-331.179-334.199-403.406l-0.008-0.002c53.604-58.875 86.315-137.322 86.315-223.457 0-93.249-38.336-177.489-100.018-237.637z" p-id="23018"></path></svg>